<?xml version="1.0" encoding="utf-8"?>
<!-- Generator: Adobe Illustrator 22.1.0, SVG Export Plug-In . SVG Version: 6.00 Build 0)  -->
<svg version="1.1" id="Layer_1" xmlns="http://www.w3.org/2000/svg" xmlns:xlink="http://www.w3.org/1999/xlink" x="0px" y="0px"
	 viewBox="0 0 498 288" style="enable-background:new 0 0 498 288;" xml:space="preserve">
<style type="text/css">
	.st0{fill:url(#SVGID_1_);}
	.st1{fill:#FFFFFF;}
</style>
<linearGradient id="SVGID_1_" gradientUnits="userSpaceOnUse" x1="52.8514" y1="105.2495" x2="423.2558" y2="105.2495">
	<stop  offset="0" style="stop-color:#9E1F63"/>
	<stop  offset="1.019634e-02" style="stop-color:#A61F62"/>
	<stop  offset="4.684573e-02" style="stop-color:#BD1D5F"/>
	<stop  offset="8.628520e-02" style="stop-color:#CD1D5D"/>
	<stop  offset="0.1301" style="stop-color:#D71C5C"/>
	<stop  offset="0.1872" style="stop-color:#DA1C5C"/>
	<stop  offset="0.3265" style="stop-color:#C91D5E"/>
	<stop  offset="0.5923" style="stop-color:#9E1F63"/>
	<stop  offset="0.6083" style="stop-color:#9C216C"/>
	<stop  offset="0.6535" style="stop-color:#96247F"/>
	<stop  offset="0.6992" style="stop-color:#93268B"/>
	<stop  offset="0.7462" style="stop-color:#92278F"/>
	<stop  offset="0.7758" style="stop-color:#9E2587"/>
	<stop  offset="0.8693" style="stop-color:#BF206F"/>
	<stop  offset="0.9474" style="stop-color:#D31D61"/>
	<stop  offset="1" style="stop-color:#DA1C5C"/>
</linearGradient>
<path class="st0" d="M150.9,84.3c-6.1,13.1-12,25.4-17.5,37.8c-1.7,3.8-4.1,5.3-8.1,5.1c-24.1-1.4-48.2-2.6-72.5-3.9
	c4.9-1.7,10-1.2,14.9-1.5c18.1-1,36.2-1.9,54.3-2.6c3.1-0.1,4-1.7,5-4.1c8-20.5,16-40.9,24-61.3c0.5-1.2,0.7-2.6,2.2-3.8
	c9.6,28.7,19.2,57.3,29.1,86.9c2.9-21.6,5.7-42,8.4-62.4c2-14.7,3.9-29.4,5.9-44.1c1-7.7,2.2-15.3,3.1-23c0.3-3,1.5-4,4.5-3.9
	c5.1,0.2,10.3,0.2,15.4,0c2.7-0.1,3.9,0.6,4.4,3.6c5.3,33.8,10.9,67.5,16.4,101.2c0.5,2.8,1.1,5.6,2.1,8.4
	c1.3-8.8,2.6-17.5,3.9-26.3c3.3-22.7,6.6-45.3,9.9-68c0.3-2.3,1.3-3.9,4.1-4c5.3-0.1,10.5-0.4,15.7-0.7c2.4-0.2,3.6,0.7,4.2,3.1
	c3.4,16,7.2,31.9,10.8,47.8c3.4,14.8,6.7,29.6,10.5,44.3c0.3,1.2,0.8,2.3,1.7,4.7c11.4-26.2,22.3-51.5,33.6-77.5
	c3.8,18.7,7.4,36.5,11.1,54.2c3.7,17.9,7.3,35.9,11.2,54.6c3.9-5,7.3-9.3,10.8-13.7c3.6-4.5,7.1-9,10.6-13.6c1.1-1.4,2.2-2.4,4-2.2
	c12.2,1.2,24.4,2.5,36.6,3.7c0.7,0.1,1.4,0.4,2.1,1.1c-10.5,1-21,2.2-31.5,2.9c-3.5,0.2-5.7,1.5-7.6,4.4c-9.3,14.1-18.8,28-28.2,42
	c-0.8,1.1-1.3,2.5-2.9,3.4c-6.7-28.3-13.3-56.5-20-84.7c-0.3,0-0.6-0.1-0.8-0.1c-11.1,29-22.1,57.9-33.2,86.9c-0.3,0-0.5,0-0.8,0
	c-8.5-32.1-17-64.2-25.6-96.3c-0.2,0-0.5,0-0.7,0c-0.7,4.7-1.5,9.4-2.1,14c-4.8,35.6-9.6,71.2-14.3,106.8c-0.3,2.6-1.3,3.3-3.8,3.3
	c-6.1-0.1-12.3-0.1-18.4,0c-2.1,0-3.2-0.5-3.5-2.8c-2.7-18-5.5-36-8.2-54c-3.3-21.9-6.6-43.7-10.6-65.7c-0.9,5.5-1.9,10.9-2.8,16.4
	c-2.3,14-4.6,28.1-7,42.1c-1.7,10.3-3.5,20.6-5.1,30.9c-0.5,3.5-1.6,5.7-5.8,5.5c-3-0.2-6,0.2-9,0.8c-3.2,0.6-4.1-1.1-4.8-3.7
	c-5.7-20.5-11.5-41-17.2-61.5C156.6,105,153.9,95.2,150.9,84.3z"/>
<path class="st1" d="M26.2,284.4c-1.9,0-3.7-0.3-5.6-0.8c-1.9-0.5-3.6-1.3-5.3-2.4c-2.9-1.9-5.2-4.3-6.8-7.3c-1.6-3-2.4-6.2-2.4-9.8
	h13.6c0,1.6,0.3,2.9,1,3.7c0.7,0.9,1.3,1.5,1.9,1.8c1,0.6,2,1,3.1,1c1.1,0.1,2.2-0.2,3.3-0.6c0.8-0.3,1.4-0.7,1.8-1.2
	c0.5-0.5,0.8-1,1-1.4c0.2-0.5,0.4-0.9,0.4-1.3c0.1-0.4,0.1-0.8,0.1-1c0-0.3,0-0.6-0.1-1c-0.1-0.4-0.2-0.9-0.4-1.4
	c-0.2-0.5-0.6-0.9-1-1.4c-0.5-0.5-1.1-0.9-1.8-1.2c-0.6-0.3-1.2-0.5-1.9-0.7c-0.7-0.2-1.4-0.5-2.1-0.7c-1.3-0.4-2.7-0.9-4.2-1.4
	c-1.4-0.5-2.9-1.3-4.3-2.2c-1.9-1.2-3.5-2.7-4.7-4.4c-1.3-1.8-2.2-3.7-2.8-5.7c-0.6-2-0.8-4.1-0.6-6.3c0.2-2.2,0.8-4.2,1.8-6.2
	c1-1.8,2.2-3.4,3.6-4.7c1.4-1.3,3.1-2.4,4.8-3.2c1.8-0.8,3.7-1.2,5.7-1.4c2-0.2,4.1,0,6.2,0.6c2,0.5,3.9,1.2,5.5,2.3
	s3.1,2.3,4.3,3.8c1.2,1.5,2.1,3.1,2.8,4.9c0.6,1.8,1,3.7,1,5.7H30.6c0-1.2-0.4-2.1-1.2-2.6c-0.8-0.5-1.5-0.8-2.1-1
	c-0.1,0-0.4,0-0.8-0.1c-0.4-0.1-0.9-0.1-1.4,0c-0.5,0.1-1,0.3-1.6,0.6c-0.5,0.3-1,0.8-1.3,1.4c-0.4,0.9-0.5,1.8-0.2,2.7
	c0.3,0.9,0.8,1.7,1.6,2.2c0.8,0.4,1.6,0.8,2.5,1.2c0.9,0.3,1.9,0.7,2.9,1c0.9,0.3,1.8,0.6,2.8,0.9c0.9,0.3,1.9,0.7,2.8,1.1
	c3.5,1.6,6.3,4,8.3,7.1c2,3.1,3,6.6,3,10.4c0,3.8-1,7.2-3,10.3c-2,3.1-4.8,5.5-8.3,7.1c-1.4,0.6-2.8,1.1-4.3,1.4
	C29.1,284.3,27.6,284.4,26.2,284.4z"/>
<path class="st1" d="M61,283.3l6.8-16.7l-20.2-42.8h15.1l12.2,25.6l10.4-25.6H100l-24.2,59.5H61z"/>
<path class="st1" d="M142.1,224.3h13.6v59H141l-19.3-34.4v34.4H108v-58.8h14.8l19.2,34.3V224.3z"/>
<path class="st1" d="M188.7,283.2c-3.8,0-7.5-0.7-11.1-2.1c-3.6-1.4-6.9-3.6-9.8-6.5c-2.8-2.8-4.9-6-6.4-9.6
	c-1.5-3.6-2.2-7.3-2.2-11.3c0-4,0.7-7.8,2.2-11.4c1.5-3.6,3.6-6.7,6.4-9.5c2.9-2.9,6.2-5.1,9.8-6.5c3.6-1.4,7.4-2.2,11.1-2.2
	c3.8,0,7.5,0.7,11.1,2.2c3.6,1.4,6.9,3.6,9.8,6.5l-9.6,9.6c-1.6-1.6-3.3-2.7-5.3-3.5c-2-0.8-4-1.2-6-1.2c-2,0-4,0.4-6,1.2
	c-2,0.8-3.7,1.9-5.3,3.5c-1.5,1.6-2.7,3.3-3.5,5.2c-0.8,1.9-1.2,4-1.2,6.1c0,2.1,0.4,4.2,1.2,6.1c0.8,1.9,2,3.6,3.5,5.2
	c1.6,1.6,3.3,2.7,5.3,3.5c2,0.8,4,1.2,6,1.2c2,0,4.1-0.4,6-1.2c2-0.8,3.8-1.9,5.3-3.5l9.6,9.6c-2.9,2.9-6.1,5.1-9.7,6.5
	C196.3,282.5,192.6,283.2,188.7,283.2z"/>
<path class="st1" d="M251.7,249.2c0,3.4-0.6,6.6-1.9,9.5c-1.3,3-3,5.6-5.2,7.8c-2.2,2.3-4.8,4-7.8,5.3c-3,1.3-6.1,2-9.5,2v9.4h-13.6
	v-59h13.6c3.4,0.1,6.5,0.8,9.5,2.1c3,1.3,5.5,3.1,7.8,5.4c2.2,2.3,4,4.9,5.2,7.8C251,242.6,251.7,245.8,251.7,249.2z M227.3,260.3
	c1.5-0.1,2.9-0.4,4.2-1c1.3-0.6,2.5-1.4,3.4-2.4c1-1,1.7-2.2,2.3-3.5c0.6-1.3,0.8-2.8,0.8-4.3c0-1.5-0.3-2.9-0.8-4.3
	c-0.6-1.3-1.3-2.5-2.3-3.5c-1-1-2.1-1.8-3.4-2.4c-1.3-0.6-2.7-1-4.2-1V260.3z"/>
<path class="st1" d="M289,224.3h13.6v59H289v-22.3h-17.1v22.3h-13.6v-59h13.6v23.1H289V224.3z"/>
<path class="st1" d="M334.9,224.3c4.1,0,7.9,0.8,11.5,2.3c3.6,1.6,6.7,3.7,9.4,6.3c2.7,2.7,4.8,5.8,6.3,9.4
	c1.6,3.6,2.3,7.4,2.3,11.5c0,4.1-0.8,7.9-2.3,11.5c-1.6,3.6-3.7,6.7-6.3,9.4c-2.7,2.7-5.8,4.8-9.4,6.3c-3.6,1.6-7.4,2.3-11.5,2.3
	c-4.1,0-7.9-0.8-11.5-2.3c-3.6-1.6-6.7-3.7-9.4-6.3c-2.7-2.7-4.8-5.8-6.3-9.4c-1.6-3.6-2.3-7.4-2.3-11.5c0-4.1,0.8-7.9,2.3-11.5
	c1.6-3.6,3.7-6.7,6.3-9.4c2.7-2.7,5.8-4.8,9.4-6.3C327,225,330.9,224.3,334.9,224.3z M335,269.7c2.2,0,4.3-0.4,6.2-1.2
	c1.9-0.8,3.6-2,5.1-3.4c1.4-1.4,2.6-3.1,3.4-5.1c0.8-1.9,1.2-4,1.2-6.2c0-2.2-0.4-4.3-1.2-6.2c-0.8-1.9-2-3.6-3.4-5.1
	c-1.4-1.4-3.1-2.6-5.1-3.4c-1.9-0.8-4-1.2-6.2-1.2c-2.2,0-4.3,0.4-6.2,1.2c-1.9,0.8-3.6,2-5.1,3.4c-1.4,1.4-2.6,3.1-3.4,5.1
	c-0.8,1.9-1.2,4-1.2,6.2c0,2.2,0.4,4.3,1.2,6.2c0.8,1.9,2,3.6,3.4,5.1c1.4,1.4,3.1,2.6,5.1,3.4C330.7,269.2,332.8,269.7,335,269.7z"
	/>
<path class="st1" d="M402.7,224.3h13.6v59h-14.7l-19.3-34.4v34.4h-13.6v-58.8h14.8l19.2,34.3V224.3z"/>
<path class="st1" d="M437.4,283.3h-13.6v-59.1h13.6V283.3z"/>
<path class="st1" d="M470.9,283.2c-3.8,0-7.5-0.7-11.1-2.1c-3.6-1.4-6.9-3.6-9.8-6.5c-2.8-2.8-4.9-6-6.4-9.6
	c-1.5-3.6-2.2-7.3-2.2-11.3c0-4,0.7-7.8,2.2-11.4c1.5-3.6,3.6-6.7,6.4-9.5c2.9-2.9,6.2-5.1,9.8-6.5c3.6-1.4,7.4-2.2,11.1-2.2
	s7.5,0.7,11.1,2.2c3.6,1.4,6.9,3.6,9.8,6.5l-9.6,9.6c-1.6-1.6-3.3-2.7-5.3-3.5c-2-0.8-4-1.2-6-1.2c-2,0-4,0.4-6,1.2
	c-2,0.8-3.7,1.9-5.3,3.5c-1.5,1.6-2.7,3.3-3.5,5.2c-0.8,1.9-1.2,4-1.2,6.1c0,2.1,0.4,4.2,1.2,6.1c0.8,1.9,2,3.6,3.5,5.2
	c1.6,1.6,3.3,2.7,5.3,3.5c2,0.8,4,1.2,6,1.2c2,0,4.1-0.4,6-1.2c2-0.8,3.8-1.9,5.3-3.5l9.6,9.6c-2.9,2.9-6.1,5.1-9.7,6.5
	C478.5,282.5,474.8,283.2,470.9,283.2z"/>
</svg>
