<svg xmlns="http://www.w3.org/2000/svg" height="512pt" version="1.1" viewBox="0 0 512 512.04568" width="512pt">
<g id="surface1">
<path d="M 339.222656 13.84375 C 294.523438 -1.453125 246.523438 -4.15625 200.324219 6.144531 C 152.921875 16.644531 109.523438 40.546875 75.023438 75.046875 C 26.621094 123.34375 0.0234375 187.644531 0.0234375 256.046875 C 0.0234375 319.046875 22.621094 378.445312 63.921875 425.246094 L 53.824219 425.246094 C 45.523438 425.246094 38.722656 432.046875 38.722656 440.34375 C 38.722656 448.644531 45.523438 455.445312 53.824219 455.445312 L 100.722656 455.445312 C 109.023438 455.445312 115.824219 448.644531 115.824219 440.34375 L 115.824219 393.445312 C 115.824219 385.144531 109.023438 378.34375 100.722656 378.34375 C 92.421875 378.34375 85.621094 385.144531 85.621094 393.445312 L 85.621094 404.144531 C 8.523438 315.546875 12.121094 180.644531 96.421875 96.34375 C 157.921875 34.84375 247.222656 14.246094 329.421875 42.445312 C 337.324219 45.144531 345.921875 40.945312 348.621094 33.046875 C 351.324219 25.144531 347.121094 16.644531 339.222656 13.84375 Z M 339.222656 13.84375 " style=" stroke:none;fill-rule:nonzero;fill:rgb(100%,43.921569%,27.058824%);fill-opacity:1;" />
<path d="M 339.222656 13.84375 C 296.023438 -0.753906 260.621094 0.246094 257.121094 0.046875 L 257.121094 30.046875 C 281.222656 30.246094 305.621094 34.246094 329.324219 42.445312 C 337.222656 45.144531 345.824219 40.945312 348.523438 33.046875 C 351.324219 25.144531 347.121094 16.34375 339.222656 13.84375 Z M 339.222656 13.84375 " style=" stroke:none;fill-rule:nonzero;fill:rgb(96.470588%,29.803922%,10.980392%);fill-opacity:1;" />
<path d="M 445.921875 84.34375 L 458.324219 84.34375 C 466.621094 84.34375 473.421875 77.546875 473.421875 69.246094 C 473.421875 60.945312 466.621094 54.144531 458.324219 54.144531 L 411.421875 54.144531 C 403.121094 54.144531 396.324219 60.945312 396.324219 69.246094 L 396.324219 116.144531 C 396.324219 124.445312 403.121094 131.246094 411.421875 131.246094 C 419.722656 131.246094 426.523438 124.445312 426.523438 116.144531 L 426.523438 108.046875 C 503.523438 196.644531 499.921875 331.445312 415.621094 415.644531 C 372.621094 458.644531 314.621094 481.746094 255.621094 481.746094 C 229.222656 481.746094 202.523438 477.144531 176.921875 467.546875 C 169.121094 464.644531 160.421875 468.644531 157.523438 476.445312 C 154.621094 484.246094 158.621094 492.945312 166.421875 495.84375 C 195.222656 506.546875 225.523438 512.046875 255.921875 512.046875 C 273.421875 512.046875 291.023438 510.246094 308.421875 506.644531 C 357.222656 496.546875 401.722656 472.445312 437.023438 437.046875 C 485.324219 388.746094 512.023438 324.445312 512.023438 256.046875 C 512.023438 191.945312 488.621094 131.546875 445.921875 84.34375 Z M 445.921875 84.34375 " style=" stroke:none;fill-rule:nonzero;fill:rgb(100%,43.921569%,27.058824%);fill-opacity:1;" />
<path d="M 458.324219 84.34375 C 466.621094 84.34375 473.421875 77.546875 473.421875 69.246094 C 473.421875 60.945312 466.621094 54.144531 458.324219 54.144531 L 411.421875 54.144531 C 403.121094 54.144531 396.324219 60.945312 396.324219 69.246094 L 396.324219 116.144531 C 396.324219 124.445312 403.121094 131.246094 411.421875 131.246094 C 419.722656 131.246094 426.523438 124.445312 426.523438 116.144531 L 426.523438 108.046875 C 503.523438 196.644531 499.921875 331.445312 415.621094 415.644531 C 372.921875 458.34375 315.621094 481.34375 257.121094 481.746094 L 257.121094 512.046875 C 274.222656 511.945312 291.421875 510.144531 308.324219 506.644531 C 357.121094 496.546875 401.621094 472.445312 436.921875 437.046875 C 485.222656 388.746094 511.921875 324.445312 511.921875 256.046875 C 511.921875 191.945312 488.523438 131.546875 445.824219 84.34375 Z M 458.324219 84.34375 " style=" stroke:none;fill-rule:nonzero;fill:rgb(96.470588%,29.803922%,10.980392%);fill-opacity:1;" />
<path d="M 391.921875 256.046875 C 391.921875 331.101562 331.078125 391.945312 256.023438 391.945312 C 180.96875 391.945312 120.121094 331.101562 120.121094 256.046875 C 120.121094 180.988281 180.96875 120.144531 256.023438 120.144531 C 331.078125 120.144531 391.921875 180.988281 391.921875 256.046875 Z M 391.921875 256.046875 " style=" stroke:none;fill-rule:nonzero;fill:rgb(0%,78.431373%,78.431373%);fill-opacity:1;" />
<path d="M 257.121094 120.144531 L 257.121094 391.945312 C 291.523438 391.644531 325.824219 378.445312 352.121094 352.144531 C 405.222656 299.046875 405.222656 213.046875 352.121094 159.945312 C 325.921875 133.644531 291.523438 120.445312 257.121094 120.144531 Z M 257.121094 120.144531 " style=" stroke:none;fill-rule:nonzero;fill:rgb(0%,62.745098%,66.666667%);fill-opacity:1;" />
<path d="M 362.824219 149.246094 C 334.324219 120.746094 296.324219 105.046875 256.023438 105.046875 C 215.722656 105.046875 177.722656 120.746094 149.222656 149.246094 C 120.722656 177.746094 105.023438 215.746094 105.023438 256.046875 C 105.023438 296.34375 120.722656 334.34375 149.222656 362.84375 C 177.722656 391.34375 215.722656 407.046875 256.023438 407.046875 C 296.324219 407.046875 334.324219 391.34375 362.824219 362.84375 C 391.324219 334.34375 407.023438 296.34375 407.023438 256.046875 C 407.023438 215.746094 391.324219 177.746094 362.824219 149.246094 Z M 375.921875 240.945312 L 322.722656 240.945312 C 321.222656 204.945312 314.523438 169.945312 302.621094 144.546875 C 316.921875 150.546875 330.121094 159.34375 341.421875 170.644531 C 360.722656 189.84375 372.621094 214.34375 375.921875 240.945312 Z M 256.023438 376.84375 C 250.722656 376.84375 241.324219 367.445312 233.421875 346.746094 C 225.621094 326.246094 220.824219 299.84375 219.523438 271.144531 L 292.324219 271.144531 C 291.023438 299.84375 286.222656 326.34375 278.421875 346.746094 C 270.722656 367.445312 261.324219 376.84375 256.023438 376.84375 Z M 219.621094 240.945312 C 220.921875 212.246094 225.722656 185.746094 233.523438 165.34375 C 241.421875 144.644531 250.722656 135.246094 256.121094 135.246094 C 261.523438 135.246094 270.824219 144.644531 278.722656 165.34375 C 286.523438 185.84375 291.324219 212.246094 292.621094 240.945312 Z M 170.621094 170.644531 C 181.921875 159.34375 195.121094 150.546875 209.421875 144.546875 C 197.621094 170.046875 190.824219 205.046875 189.324219 240.945312 L 136.121094 240.945312 C 139.421875 214.34375 151.324219 189.84375 170.621094 170.644531 Z M 136.121094 271.144531 L 189.324219 271.144531 C 190.824219 307.144531 197.523438 342.144531 209.421875 367.546875 C 195.121094 361.546875 181.921875 352.746094 170.621094 341.445312 C 151.324219 322.246094 139.421875 297.746094 136.121094 271.144531 Z M 341.421875 341.445312 C 330.121094 352.746094 316.921875 361.546875 302.621094 367.546875 C 314.421875 342.046875 321.222656 307.046875 322.722656 271.144531 L 375.921875 271.144531 C 372.621094 297.746094 360.722656 322.246094 341.421875 341.445312 Z M 341.421875 341.445312 " style=" stroke:none;fill-rule:nonzero;fill:rgb(23.137255%,28.627451%,34.509804%);fill-opacity:1;" />
<path d="M 257.121094 105.046875 L 257.121094 135.34375 C 262.621094 136.546875 271.222656 146.046875 278.523438 165.34375 C 286.324219 185.84375 291.121094 212.246094 292.421875 240.945312 L 257.121094 240.945312 L 257.121094 271.144531 L 292.421875 271.144531 C 291.121094 299.84375 286.324219 326.34375 278.523438 346.746094 C 271.121094 366.046875 262.523438 375.546875 257.121094 376.746094 L 257.121094 407.046875 C 297.023438 406.746094 334.523438 391.046875 362.722656 362.84375 C 391.324219 334.34375 407.023438 296.34375 407.023438 256.046875 C 407.023438 215.746094 391.324219 177.746094 362.824219 149.246094 C 334.523438 121.046875 297.121094 105.34375 257.121094 105.046875 Z M 341.421875 341.445312 C 330.121094 352.746094 316.921875 361.546875 302.621094 367.546875 C 314.421875 342.046875 321.222656 307.046875 322.722656 271.144531 L 375.921875 271.144531 C 372.621094 297.746094 360.722656 322.246094 341.421875 341.445312 Z M 322.621094 240.945312 C 321.121094 204.945312 314.421875 169.945312 302.523438 144.546875 C 316.824219 150.546875 330.023438 159.34375 341.324219 170.644531 C 360.523438 189.84375 372.523438 214.445312 375.824219 240.945312 Z M 322.621094 240.945312 " style=" stroke:none;fill-rule:nonzero;fill:rgb(9.019608%,12.54902%,16.470588%);fill-opacity:1;" />
</g>
</svg>